<mxfile host="app.diagrams.net" agent="Mozilla/5.0 (Windows NT 10.0; Win64; x64) AppleWebKit/537.36 (KHTML, like Gecko) Chrome/135.0.0.0 Safari/537.36 Edg/135.0.0.0" version="26.2.14">
  <diagram name="第 1 页" id="Xc8HDyHQsPukDDVYWPaR">
    <mxGraphModel dx="1034" dy="578" grid="0" gridSize="10" guides="1" tooltips="1" connect="1" arrows="1" fold="1" page="0" pageScale="1" pageWidth="827" pageHeight="1169" math="0" shadow="0">
      <root>
        <mxCell id="0" />
        <mxCell id="1" parent="0" />
        <mxCell id="loA5Ot5FNnKdgjUqueoy-1" value="客户端" style="rounded=0;whiteSpace=wrap;html=1;" parent="1" vertex="1">
          <mxGeometry x="30" y="98" width="92" height="42" as="geometry" />
        </mxCell>
        <mxCell id="loA5Ot5FNnKdgjUqueoy-2" value="" style="endArrow=none;dashed=1;html=1;dashPattern=1 3;strokeWidth=2;rounded=0;" parent="1" source="loA5Ot5FNnKdgjUqueoy-35" edge="1">
          <mxGeometry width="50" height="50" relative="1" as="geometry">
            <mxPoint x="77" y="682" as="sourcePoint" />
            <mxPoint x="75" y="137" as="targetPoint" />
          </mxGeometry>
        </mxCell>
        <mxCell id="loA5Ot5FNnKdgjUqueoy-3" value="" style="rounded=1;whiteSpace=wrap;html=1;" parent="1" vertex="1">
          <mxGeometry x="69" y="151" width="16" height="204" as="geometry" />
        </mxCell>
        <mxCell id="loA5Ot5FNnKdgjUqueoy-4" value="服务端" style="rounded=0;whiteSpace=wrap;html=1;" parent="1" vertex="1">
          <mxGeometry x="242" y="98" width="92" height="42" as="geometry" />
        </mxCell>
        <mxCell id="loA5Ot5FNnKdgjUqueoy-5" value="数据库" style="rounded=0;whiteSpace=wrap;html=1;" parent="1" vertex="1">
          <mxGeometry x="458" y="96" width="92" height="42" as="geometry" />
        </mxCell>
        <mxCell id="loA5Ot5FNnKdgjUqueoy-6" value="" style="endArrow=none;dashed=1;html=1;dashPattern=1 3;strokeWidth=2;rounded=0;" parent="1" source="loA5Ot5FNnKdgjUqueoy-31" edge="1">
          <mxGeometry width="50" height="50" relative="1" as="geometry">
            <mxPoint x="291" y="689" as="sourcePoint" />
            <mxPoint x="287" y="140" as="targetPoint" />
          </mxGeometry>
        </mxCell>
        <mxCell id="loA5Ot5FNnKdgjUqueoy-7" value="" style="rounded=1;whiteSpace=wrap;html=1;" parent="1" vertex="1">
          <mxGeometry x="281" y="154" width="14" height="207" as="geometry" />
        </mxCell>
        <mxCell id="loA5Ot5FNnKdgjUqueoy-8" value="" style="endArrow=none;dashed=1;html=1;dashPattern=1 3;strokeWidth=2;rounded=0;" parent="1" source="loA5Ot5FNnKdgjUqueoy-33" edge="1">
          <mxGeometry width="50" height="50" relative="1" as="geometry">
            <mxPoint x="510" y="691" as="sourcePoint" />
            <mxPoint x="505" y="138" as="targetPoint" />
          </mxGeometry>
        </mxCell>
        <mxCell id="loA5Ot5FNnKdgjUqueoy-9" value="" style="rounded=1;whiteSpace=wrap;html=1;" parent="1" vertex="1">
          <mxGeometry x="499" y="152" width="14" height="209" as="geometry" />
        </mxCell>
        <mxCell id="loA5Ot5FNnKdgjUqueoy-10" value="" style="endArrow=classic;html=1;rounded=0;exitX=1.013;exitY=0.054;exitDx=0;exitDy=0;exitPerimeter=0;" parent="1" source="loA5Ot5FNnKdgjUqueoy-3" edge="1">
          <mxGeometry width="50" height="50" relative="1" as="geometry">
            <mxPoint x="344" y="344" as="sourcePoint" />
            <mxPoint x="278" y="164" as="targetPoint" />
          </mxGeometry>
        </mxCell>
        <mxCell id="loA5Ot5FNnKdgjUqueoy-11" value="获取数据并携带token" style="edgeLabel;html=1;align=center;verticalAlign=middle;resizable=0;points=[];" parent="loA5Ot5FNnKdgjUqueoy-10" vertex="1" connectable="0">
          <mxGeometry x="-0.2074" y="2" relative="1" as="geometry">
            <mxPoint as="offset" />
          </mxGeometry>
        </mxCell>
        <mxCell id="loA5Ot5FNnKdgjUqueoy-16" style="edgeStyle=orthogonalEdgeStyle;rounded=0;orthogonalLoop=1;jettySize=auto;html=1;exitX=0.986;exitY=0.57;exitDx=0;exitDy=0;exitPerimeter=0;" parent="1" source="loA5Ot5FNnKdgjUqueoy-7" edge="1">
          <mxGeometry relative="1" as="geometry">
            <Array as="points">
              <mxPoint x="295" y="234" />
              <mxPoint x="379" y="234" />
              <mxPoint x="379" y="193" />
            </Array>
            <mxPoint x="296" y="193" as="targetPoint" />
          </mxGeometry>
        </mxCell>
        <mxCell id="loA5Ot5FNnKdgjUqueoy-17" value="token认证" style="text;html=1;align=center;verticalAlign=middle;resizable=0;points=[];autosize=1;strokeColor=none;fillColor=none;" parent="1" vertex="1">
          <mxGeometry x="330" y="202" width="71" height="26" as="geometry" />
        </mxCell>
        <mxCell id="loA5Ot5FNnKdgjUqueoy-18" value="" style="endArrow=open;html=1;rounded=0;entryX=0.818;entryY=0.84;entryDx=0;entryDy=0;entryPerimeter=0;dashed=1;endFill=0;" parent="1" edge="1">
          <mxGeometry width="50" height="50" relative="1" as="geometry">
            <mxPoint x="282" y="320" as="sourcePoint" />
            <mxPoint x="84.08799999999997" y="322.36" as="targetPoint" />
          </mxGeometry>
        </mxCell>
        <mxCell id="loA5Ot5FNnKdgjUqueoy-24" value="" style="endArrow=classic;html=1;rounded=0;exitX=1.013;exitY=0.054;exitDx=0;exitDy=0;exitPerimeter=0;" parent="1" edge="1">
          <mxGeometry width="50" height="50" relative="1" as="geometry">
            <mxPoint x="295" y="264" as="sourcePoint" />
            <mxPoint x="497" y="264" as="targetPoint" />
          </mxGeometry>
        </mxCell>
        <mxCell id="loA5Ot5FNnKdgjUqueoy-25" value="获取数据" style="edgeLabel;html=1;align=center;verticalAlign=middle;resizable=0;points=[];" parent="loA5Ot5FNnKdgjUqueoy-24" vertex="1" connectable="0">
          <mxGeometry x="-0.2074" y="2" relative="1" as="geometry">
            <mxPoint as="offset" />
          </mxGeometry>
        </mxCell>
        <mxCell id="loA5Ot5FNnKdgjUqueoy-26" value="" style="endArrow=open;html=1;rounded=0;entryX=1.182;entryY=0.438;entryDx=0;entryDy=0;entryPerimeter=0;dashed=1;exitX=0.143;exitY=0.642;exitDx=0;exitDy=0;exitPerimeter=0;endFill=0;" parent="1" edge="1">
          <mxGeometry width="50" height="50" relative="1" as="geometry">
            <mxPoint x="502.00199999999995" y="286.178" as="sourcePoint" />
            <mxPoint x="294" y="287" as="targetPoint" />
          </mxGeometry>
        </mxCell>
        <mxCell id="loA5Ot5FNnKdgjUqueoy-27" value="返回数据" style="edgeLabel;html=1;align=center;verticalAlign=middle;resizable=0;points=[];" parent="loA5Ot5FNnKdgjUqueoy-26" vertex="1" connectable="0">
          <mxGeometry x="-0.1678" y="1" relative="1" as="geometry">
            <mxPoint as="offset" />
          </mxGeometry>
        </mxCell>
        <mxCell id="loA5Ot5FNnKdgjUqueoy-28" value="&lt;span style=&quot;font-size: 11px;&quot;&gt;返回数据&lt;/span&gt;" style="text;html=1;align=center;verticalAlign=middle;resizable=0;points=[];autosize=1;strokeColor=none;fillColor=none;" parent="1" vertex="1">
          <mxGeometry x="149" y="283" width="62" height="27" as="geometry" />
        </mxCell>
        <mxCell id="loA5Ot5FNnKdgjUqueoy-29" value="" style="endArrow=none;dashed=1;html=1;dashPattern=1 3;strokeWidth=2;rounded=0;" parent="1" edge="1">
          <mxGeometry width="50" height="50" relative="1" as="geometry">
            <mxPoint x="48" y="378" as="sourcePoint" />
            <mxPoint x="545" y="378" as="targetPoint" />
          </mxGeometry>
        </mxCell>
        <mxCell id="loA5Ot5FNnKdgjUqueoy-30" value="正常请求" style="edgeLabel;html=1;align=center;verticalAlign=middle;resizable=0;points=[];" parent="loA5Ot5FNnKdgjUqueoy-29" vertex="1" connectable="0">
          <mxGeometry x="0.1344" y="1" relative="1" as="geometry">
            <mxPoint as="offset" />
          </mxGeometry>
        </mxCell>
        <mxCell id="loA5Ot5FNnKdgjUqueoy-32" value="" style="endArrow=none;dashed=1;html=1;dashPattern=1 3;strokeWidth=2;rounded=0;" parent="1" target="loA5Ot5FNnKdgjUqueoy-31" edge="1">
          <mxGeometry width="50" height="50" relative="1" as="geometry">
            <mxPoint x="291" y="689" as="sourcePoint" />
            <mxPoint x="287" y="140" as="targetPoint" />
          </mxGeometry>
        </mxCell>
        <mxCell id="loA5Ot5FNnKdgjUqueoy-31" value="" style="rounded=1;whiteSpace=wrap;html=1;" parent="1" vertex="1">
          <mxGeometry x="283" y="406" width="14" height="207" as="geometry" />
        </mxCell>
        <mxCell id="loA5Ot5FNnKdgjUqueoy-34" value="" style="endArrow=none;dashed=1;html=1;dashPattern=1 3;strokeWidth=2;rounded=0;" parent="1" target="loA5Ot5FNnKdgjUqueoy-33" edge="1">
          <mxGeometry width="50" height="50" relative="1" as="geometry">
            <mxPoint x="510" y="691" as="sourcePoint" />
            <mxPoint x="505" y="138" as="targetPoint" />
          </mxGeometry>
        </mxCell>
        <mxCell id="loA5Ot5FNnKdgjUqueoy-33" value="" style="rounded=1;whiteSpace=wrap;html=1;" parent="1" vertex="1">
          <mxGeometry x="502" y="401" width="14" height="209" as="geometry" />
        </mxCell>
        <mxCell id="loA5Ot5FNnKdgjUqueoy-36" value="" style="endArrow=none;dashed=1;html=1;dashPattern=1 3;strokeWidth=2;rounded=0;" parent="1" target="loA5Ot5FNnKdgjUqueoy-35" edge="1">
          <mxGeometry width="50" height="50" relative="1" as="geometry">
            <mxPoint x="77" y="682" as="sourcePoint" />
            <mxPoint x="75" y="137" as="targetPoint" />
          </mxGeometry>
        </mxCell>
        <mxCell id="loA5Ot5FNnKdgjUqueoy-35" value="" style="rounded=1;whiteSpace=wrap;html=1;" parent="1" vertex="1">
          <mxGeometry x="70" y="405" width="14" height="220" as="geometry" />
        </mxCell>
        <mxCell id="loA5Ot5FNnKdgjUqueoy-37" value="" style="endArrow=classic;html=1;rounded=0;exitX=1.013;exitY=0.054;exitDx=0;exitDy=0;exitPerimeter=0;entryX=0.039;entryY=0.109;entryDx=0;entryDy=0;entryPerimeter=0;" parent="1" target="loA5Ot5FNnKdgjUqueoy-31" edge="1">
          <mxGeometry width="50" height="50" relative="1" as="geometry">
            <mxPoint x="83.5" y="432" as="sourcePoint" />
            <mxPoint x="276.5" y="434" as="targetPoint" />
          </mxGeometry>
        </mxCell>
        <mxCell id="loA5Ot5FNnKdgjUqueoy-38" value="获取数据并携带token" style="edgeLabel;html=1;align=center;verticalAlign=middle;resizable=0;points=[];" parent="loA5Ot5FNnKdgjUqueoy-37" vertex="1" connectable="0">
          <mxGeometry x="-0.2074" y="2" relative="1" as="geometry">
            <mxPoint as="offset" />
          </mxGeometry>
        </mxCell>
        <mxCell id="loA5Ot5FNnKdgjUqueoy-40" style="edgeStyle=orthogonalEdgeStyle;rounded=0;orthogonalLoop=1;jettySize=auto;html=1;exitX=0.986;exitY=0.57;exitDx=0;exitDy=0;exitPerimeter=0;" parent="1" edge="1">
          <mxGeometry relative="1" as="geometry">
            <Array as="points">
              <mxPoint x="297" y="495" />
              <mxPoint x="381" y="495" />
              <mxPoint x="381" y="454" />
            </Array>
            <mxPoint x="297" y="533" as="sourcePoint" />
            <mxPoint x="298" y="454" as="targetPoint" />
          </mxGeometry>
        </mxCell>
        <mxCell id="loA5Ot5FNnKdgjUqueoy-41" value="token认证失败" style="text;html=1;align=center;verticalAlign=middle;resizable=0;points=[];autosize=1;strokeColor=none;fillColor=none;" parent="1" vertex="1">
          <mxGeometry x="320" y="463" width="95" height="26" as="geometry" />
        </mxCell>
        <mxCell id="loA5Ot5FNnKdgjUqueoy-43" value="" style="endArrow=open;html=1;rounded=0;entryX=0.818;entryY=0.84;entryDx=0;entryDy=0;entryPerimeter=0;dashed=1;endFill=0;" parent="1" edge="1">
          <mxGeometry width="50" height="50" relative="1" as="geometry">
            <mxPoint x="283" y="521" as="sourcePoint" />
            <mxPoint x="85" y="523" as="targetPoint" />
          </mxGeometry>
        </mxCell>
        <mxCell id="loA5Ot5FNnKdgjUqueoy-44" value="&lt;span style=&quot;font-size: 11px;&quot;&gt;返回特定状态码&lt;/span&gt;" style="text;html=1;align=center;verticalAlign=middle;resizable=0;points=[];autosize=1;strokeColor=none;fillColor=none;" parent="1" vertex="1">
          <mxGeometry x="136" y="484" width="95" height="27" as="geometry" />
        </mxCell>
        <mxCell id="loA5Ot5FNnKdgjUqueoy-45" style="edgeStyle=orthogonalEdgeStyle;rounded=0;orthogonalLoop=1;jettySize=auto;html=1;exitX=0.986;exitY=0.57;exitDx=0;exitDy=0;exitPerimeter=0;" parent="1" edge="1">
          <mxGeometry relative="1" as="geometry">
            <Array as="points">
              <mxPoint x="84" y="585" />
              <mxPoint x="168" y="585" />
              <mxPoint x="168" y="544" />
            </Array>
            <mxPoint x="84" y="623" as="sourcePoint" />
            <mxPoint x="85" y="544" as="targetPoint" />
          </mxGeometry>
        </mxCell>
        <mxCell id="loA5Ot5FNnKdgjUqueoy-46" value="重定向到登录界面" style="text;html=1;align=center;verticalAlign=middle;resizable=0;points=[];autosize=1;strokeColor=none;fillColor=none;" parent="1" vertex="1">
          <mxGeometry x="78" y="549" width="114" height="26" as="geometry" />
        </mxCell>
        <mxCell id="loA5Ot5FNnKdgjUqueoy-47" value="" style="endArrow=none;dashed=1;html=1;dashPattern=1 3;strokeWidth=2;rounded=0;" parent="1" edge="1">
          <mxGeometry width="50" height="50" relative="1" as="geometry">
            <mxPoint x="41.5" y="644" as="sourcePoint" />
            <mxPoint x="538.5" y="644" as="targetPoint" />
          </mxGeometry>
        </mxCell>
        <mxCell id="loA5Ot5FNnKdgjUqueoy-48" value="token无效或过期" style="edgeLabel;html=1;align=center;verticalAlign=middle;resizable=0;points=[];" parent="loA5Ot5FNnKdgjUqueoy-47" vertex="1" connectable="0">
          <mxGeometry x="0.1344" y="1" relative="1" as="geometry">
            <mxPoint as="offset" />
          </mxGeometry>
        </mxCell>
      </root>
    </mxGraphModel>
  </diagram>
</mxfile>
